<svg width="1800" height="2200" xmlns="http://www.w3.org/2000/svg">
  <defs>
    <style>
      .title { font-family: Arial, sans-serif; font-size: 28px; font-weight: bold; text-anchor: middle; fill: #1a237e; }
      .entity { fill: #e3f2fd; stroke: #1976d2; stroke-width: 2; rx: 8; }
      .entity-title { font-family: Arial, sans-serif; font-size: 16px; font-weight: bold; text-anchor: middle; fill: #0d47a1; }
      .attribute { font-family: Arial, sans-serif; font-size: 11px; fill: #424242; }
      .pk { font-weight: bold; fill: #d32f2f; text-decoration: underline; }
      .fk { font-style: italic; fill: #1976d2; }
      .unique { fill: #388e3c; }
      .relationship { stroke: #333; stroke-width: 2; fill: none; }
      .relationship-label { font-family: Arial, sans-serif; font-size: 11px; text-anchor: middle; fill: #424242; font-weight: bold; }
      .crow-foot { stroke: #333; stroke-width: 2; }
      .config-entity { fill: #fff3e0; stroke: #f57c00; stroke-width: 2; rx: 8; }
      .config-title { font-family: Arial, sans-serif; font-size: 15px; font-weight: bold; text-anchor: middle; fill: #e65100; }
      .audit-entity { fill: #f3e5f5; stroke: #7b1fa2; stroke-width: 2; rx: 8; }
      .audit-title { font-family: Arial, sans-serif; font-size: 15px; font-weight: bold; text-anchor: middle; fill: #4a148c; }
    </style>
    <marker id="one" markerWidth="12" markerHeight="12" refX="6" refY="6" orient="auto">
      <path d="M 6,0 L 6,12" stroke="#333" stroke-width="2" fill="none" />
    </marker>
    <marker id="many" markerWidth="12" markerHeight="12" refX="0" refY="6" orient="auto">
      <path d="M 0,0 L 0,12 M 6,0 L 6,12 M 12,6 L 0,6" stroke="#333" stroke-width="2" fill="none" />
    </marker>
    <marker id="zero-one" markerWidth="12" markerHeight="12" refX="0" refY="6" orient="auto">
      <path d="M 0,0 L 0,12" stroke="#333" stroke-width="2" fill="none" />
      <circle cx="6" cy="6" r="3" fill="none" stroke="#333" stroke-width="2"/>
    </marker>
  </defs>
  
  <text x="900" y="35" class="title">Entity Relationship Diagram (ERD)</text>
  <text x="900" y="60" style="font-family: Arial, sans-serif; font-size: 16px; text-anchor: middle; fill: #616161;">Sistem Manajemen Absensi dan Penggajian Karyawan</text>
  
  <rect x="30" y="90" width="240" height="200" class="entity"/>
  <text x="150" y="115" class="entity-title">User</text>
  <line x1="30" y1="125" x2="270" y2="125" stroke="#1976d2" stroke-width="1"/>
  <text x="40" y="145" class="attribute pk">id: String (PK)</text>
  <text x="40" y="162" class="attribute">name: String</text>
  <text x="40" y="179" class="attribute unique">email: String (UK)</text>
  <text x="40" y="196" class="attribute">hashedPassword: String</text>
  <text x="40" y="213" class="attribute">profileImageUrl: String?</text>
  <text x="40" y="230" class="attribute">role: String</text>
  <text x="40" y="247" class="attribute">createdAt: DateTime</text>
  <text x="40" y="264" class="attribute">updatedAt: DateTime</text>
  
  <rect x="340" y="90" width="260" height="240" class="entity"/>
  <text x="470" y="115" class="entity-title">Employee</text>
  <line x1="340" y1="125" x2="600" y2="125" stroke="#1976d2" stroke-width="1"/>
  <text x="350" y="145" class="attribute pk">id: String (PK)</text>
  <text x="350" y="162" class="attribute unique">employeeId: String (UK)</text>
  <text x="350" y="179" class="attribute fk">userId: String (FK, UK)</text>
  <text x="350" y="196" class="attribute">position: String</text>
  <text x="350" y="213" class="attribute">division: String</text>
  <text x="350" y="230" class="attribute">basicSalary: Float</text>
  <text x="350" y="247" class="attribute">joiningDate: DateTime</text>
  <text x="350" y="264" class="attribute unique">contactNumber: String?</text>
  <text x="350" y="281" class="attribute">address: String?</text>
  <text x="350" y="298" class="attribute">isActive: Boolean</text>
  <text x="350" y="315" class="attribute">hourlyRate: Float?</text>
  
  <rect x="30" y="330" width="240" height="130" class="entity"/>
  <text x="150" y="355" class="entity-title">Session</text>
  <line x1="30" y1="365" x2="270" y2="365" stroke="#1976d2" stroke-width="1"/>
  <text x="40" y="385" class="attribute pk">id: String (PK)</text>
  <text x="40" y="402" class="attribute unique">sessionToken: String (UK)</text>
  <text x="40" y="419" class="attribute fk">userId: String (FK)</text>
  <text x="40" y="436" class="attribute">expires: DateTime</text>
  
  <rect x="30" y="490" width="240" height="150" class="entity"/>
  <text x="150" y="515" class="entity-title">Notification</text>
  <line x1="30" y1="525" x2="270" y2="525" stroke="#1976d2" stroke-width="1"/>
  <text x="40" y="545" class="attribute pk">id: String (PK)</text>
  <text x="40" y="562" class="attribute fk">userId: String (FK)</text>
  <text x="40" y="579" class="attribute">title: String</text>
  <text x="40" y="596" class="attribute">message: String</text>
  <text x="40" y="613" class="attribute">type: String</text>
  
  <rect x="670" y="90" width="310" height="360" class="entity"/>
  <text x="825" y="115" class="entity-title">Attendance</text>
  <line x1="670" y1="125" x2="980" y2="125" stroke="#1976d2" stroke-width="1"/>
  <text x="680" y="145" class="attribute pk">id: String (PK)</text>
  <text x="680" y="162" class="attribute fk">employeeId: String (FK)</text>
  <text x="680" y="179" class="attribute">date: DateTime</text>
  <text x="680" y="196" class="attribute">checkIn: DateTime?</text>
  <text x="680" y="213" class="attribute">checkOut: DateTime?</text>
  <text x="680" y="230" class="attribute">status: String</text>
  <text x="680" y="247" class="attribute">isLate: Boolean</text>
  <text x="680" y="264" class="attribute">lateMinutes: Int</text>
  <text x="680" y="281" class="attribute">overtime: Int</text>
  <text x="680" y="298" class="attribute">isOvertimeApproved: Boolean</text>
  <text x="680" y="315" class="attribute">checkInLatitude: Float?</text>
  <text x="680" y="332" class="attribute">checkInPhotoUrl: String?</text>
  <text x="680" y="349" class="attribute">lateReason: String?</text>
  <text x="680" y="366" class="attribute">lateApprovalStatus: String?</text>
  <text x="680" y="383" class="attribute">overtimeStart: DateTime?</text>
  <text x="680" y="400" class="attribute">overtimeEnd: DateTime?</text>
  <text x="680" y="417" class="attribute">overtimeEndPhotoUrl: String?</text>
  <text x="680" y="434" class="attribute">updatedAt: DateTime</text>
  
  <rect x="340" y="370" width="260" height="280" class="entity"/>
  <text x="470" y="395" class="entity-title">Payroll</text>
  <line x1="340" y1="405" x2="600" y2="405" stroke="#1976d2" stroke-width="1"/>
  <text x="350" y="425" class="attribute pk">id: String (PK)</text>
  <text x="350" y="442" class="attribute fk">employeeId: String (FK)</text>
  <text x="350" y="459" class="attribute">month: Int</text>
  <text x="350" y="476" class="attribute">year: Int</text>
  <text x="350" y="493" class="attribute">baseSalary: Float</text>
  <text x="350" y="510" class="attribute">totalAllowances: Float</text>
  <text x="350" y="527" class="attribute">totalDeductions: Float</text>
  <text x="350" y="544" class="attribute">netSalary: Float</text>
  <text x="350" y="561" class="attribute">daysPresent: Float</text>
  <text x="350" y="578" class="attribute">daysAbsent: Float</text>
  <text x="350" y="595" class="attribute">overtimeHours: Float</text>
  <text x="350" y="612" class="attribute">status: String</text>
  <text x="350" y="629" class="attribute">createdAt: DateTime</text>
  
  <rect x="670" y="490" width="240" height="170" class="entity"/>
  <text x="790" y="515" class="entity-title">Leave</text>
  <line x1="670" y1="525" x2="910" y2="525" stroke="#1976d2" stroke-width="1"/>
  <text x="680" y="545" class="attribute pk">id: String (PK)</text>
  <text x="680" y="562" class="attribute fk">employeeId: String (FK)</text>
  <text x="680" y="579" class="attribute">startDate: DateTime</text>
  <text x="680" y="596" class="attribute">endDate: DateTime</text>
  <text x="680" y="613" class="attribute">reason: String</text>
  <text x="680" y="630" class="attribute">type: String</text>
  <text x="680" y="647" class="attribute">status: String</text>
  
  <rect x="1020" y="90" width="240" height="150" class="entity"/>
  <text x="1140" y="115" class="entity-title">OvertimeRequest</text>
  <line x1="1020" y1="125" x2="1260" y2="125" stroke="#1976d2" stroke-width="1"/>
  <text x="1030" y="145" class="attribute pk">id: String (PK)</text>
  <text x="1030" y="162" class="attribute fk">employeeId: String (FK)</text>
  <text x="1030" y="179" class="attribute">date: DateTime</text>
  <text x="1030" y="196" class="attribute">start: DateTime</text>
  <text x="1030" y="213" class="attribute">end: DateTime</text>
  <text x="1030" y="230" class="attribute">reason: String?</text>
  
  <rect x="1020" y="270" width="240" height="150" class="entity"/>
  <text x="1140" y="295" class="entity-title">Advance</text>
  <line x1="1020" y1="305" x2="1260" y2="305" stroke="#1976d2" stroke-width="1"/>
  <text x="1030" y="325" class="attribute pk">id: String (PK)</text>
  <text x="1030" y="342" class="attribute fk">employeeId: String (FK)</text>
  <text x="1030" y="359" class="attribute">amount: Float</text>
  <text x="1030" y="376" class="attribute">month: Int</text>
  <text x="1030" y="393" class="attribute">year: Int</text>
  <text x="1030" y="410" class="attribute">status: String</text>
  
  <rect x="1020" y="450" width="240" height="180" class="entity"/>
  <text x="1140" y="475" class="entity-title">SoftLoan</text>
  <line x1="1020" y1="485" x2="1260" y2="485" stroke="#1976d2" stroke-width="1"/>
  <text x="1030" y="505" class="attribute pk">id: String (PK)</text>
  <text x="1030" y="522" class="attribute fk">employeeId: String (FK)</text>
  <text x="1030" y="539" class="attribute">totalAmount: Float</text>
  <text x="1030" y="556" class="attribute">monthlyAmount: Float</text>
  <text x="1030" y="573" class="attribute">remainingAmount: Float</text>
  <text x="1030" y="590" class="attribute">durationMonths: Int</text>
  <text x="1030" y="607" class="attribute">status: String</text>
  
  <rect x="1300" y="90" width="220" height="130" class="entity"/>
  <text x="1410" y="115" class="entity-title">Allowance</text>
  <line x1="1300" y1="125" x2="1520" y2="125" stroke="#1976d2" stroke-width="1"/>
  <text x="1310" y="145" class="attribute pk">id: String (PK)</text>
  <text x="1310" y="162" class="attribute fk">employeeId: String (FK)</text>
  <text x="1310" y="179" class="attribute">type: String</text>
  <text x="1310" y="196" class="attribute">amount: Float</text>
  <text x="1310" y="213" class="attribute fk">payrollId: String? (FK)</text>
  
  <rect x="1300" y="250" width="220" height="130" class="entity"/>
  <text x="1410" y="275" class="entity-title">Deduction</text>
  <line x1="1300" y1="285" x2="1520" y2="285" stroke="#1976d2" stroke-width="1"/>
  <text x="1310" y="305" class="attribute pk">id: String (PK)</text>
  <text x="1310" y="322" class="attribute fk">employeeId: String (FK)</text>
  <text x="1310" y="339" class="attribute">reason: String</text>
  <text x="1310" y="356" class="attribute">amount: Float</text>
  <text x="1310" y="373" class="attribute fk">payrollId: String? (FK)</text>
  
  <rect x="30" y="680" width="240" height="110" class="audit-entity"/>
  <text x="150" y="705" class="audit-title">ApprovalLog</text>
  <line x1="30" y1="715" x2="270" y2="715" stroke="#7b1fa2" stroke-width="1"/>
  <text x="40" y="735" class="attribute pk">id: String (PK)</text>
  <text x="40" y="752" class="attribute fk">attendanceId: String (FK)</text>
  <text x="40" y="769" class="attribute">action: String</text>
  
  <rect x="340" y="680" width="240" height="130" class="audit-entity"/>
  <text x="460" y="705" class="audit-title">AuditLog</text>
  <line x1="340" y1="715" x2="580" y2="715" stroke="#7b1fa2" stroke-width="1"/>
  <text x="350" y="735" class="attribute pk">id: String (PK)</text>
  <text x="350" y="752" class="attribute">actorUserId: String</text>
  <text x="350" y="769" class="attribute fk">attendanceId: String? (FK)</text>
  <text x="350" y="786" class="attribute fk">employeeId: String? (FK)</text>
  <text x="350" y="803" class="attribute">action: String</text>
  
  <rect x="670" y="680" width="280" height="120" class="audit-entity"/>
  <text x="810" y="705" class="audit-title">AttendanceAuditLog</text>
  <line x1="670" y1="715" x2="950" y2="715" stroke="#7b1fa2" stroke-width="1"/>
  <text x="680" y="735" class="attribute pk">id: String (PK)</text>
  <text x="680" y="752" class="attribute fk">attendanceId: String? (FK)</text>
  <text x="680" y="769" class="attribute">action: String</text>
  <text x="680" y="786" class="attribute">oldValue: Json?</text>
  
  <rect x="1020" y="680" width="260" height="120" class="audit-entity"/>
  <text x="1150" y="705" class="audit-title">PayrollAuditLog</text>
  <line x1="1020" y1="715" x2="1280" y2="715" stroke="#7b1fa2" stroke-width="1"/>
  <text x="1030" y="735" class="attribute pk">id: String (PK)</text>
  <text x="1030" y="752" class="attribute fk">payrollId: String? (FK)</text>
  <text x="1030" y="769" class="attribute">action: String</text>
  
  <rect x="1300" y="680" width="220" height="110" class="config-entity"/>
  <text x="1410" y="705" class="config-title">DeviceToken</text>
  <line x1="1300" y1="715" x2="1520" y2="715" stroke="#f57c00" stroke-width="1"/>
  <text x="1310" y="735" class="attribute pk">id: String (PK)</text>
  <text x="1310" y="752" class="attribute fk">userId: String (FK)</text>
  <text x="1310" y="769" class="attribute unique">token: String (UK)</text>
  
  <rect x="30" y="840" width="260" height="130" class="config-entity"/>
  <text x="160" y="865" class="config-title">CompanyWorkHours</text>
  <line x1="30" y1="875" x2="290" y2="875" stroke="#f57c00" stroke-width="1"/>
  <text x="40" y="895" class="attribute pk">id: String (PK)</text>
  <text x="40" y="912" class="attribute">weekdayStart: String</text>
  <text x="40" y="929" class="attribute">weekdayEnd: String</text>
  <text x="40" y="946" class="attribute">lateThreshold: String</text>
  
  <rect x="340" y="840" width="260" height="130" class="config-entity"/>
  <text x="470" y="865" class="config-title">PenaltyConfig</text>
  <line x1="340" y1="875" x2="600" y2="875" stroke="#f57c00" stroke-width="1"/>
  <text x="350" y="895" class="attribute pk">id: String (PK)</text>
  <text x="350" y="912" class="attribute">latePerDayAmount: Float</text>
  <text x="350" y="929" class="attribute">absencePenaltyPercent: Float</text>
  <text x="350" y="946" class="attribute">effectiveDate: DateTime</text>
  
  <rect x="670" y="840" width="260" height="130" class="config-entity"/>
  <text x="800" y="865" class="config-title">OvertimeConfig</text>
  <line x1="670" y1="875" x2="930" y2="875" stroke="#f57c00" stroke-width="1"/>
  <text x="680" y="895" class="attribute pk">id: String (PK)</text>
  <text x="680" y="912" class="attribute">rateMultiplier: Float</text>
  <text x="680" y="929" class="attribute">sundayMultiplier: Float</text>
  <text x="680" y="946" class="attribute">maxDailyOvertimeHours: Float</text>
  
  <rect x="1020" y="840" width="240" height="130" class="config-entity"/>
  <text x="1140" y="865" class="config-title">PayrollConfig</text>
  <line x1="1020" y1="875" x2="1260" y2="875" stroke="#f57c00" stroke-width="1"/>
  <text x="1030" y="895" class="attribute pk">id: String (PK)</text>
  <text x="1030" y="912" class="attribute">minMonthlyWage: Float</text>
  <text x="1030" y="929" class="attribute">minHourlyWage: Float</text>
  <text x="1030" y="946" class="attribute">effectiveDate: DateTime</text>
  
  <rect x="1300" y="840" width="220" height="110" class="config-entity"/>
  <text x="1410" y="865" class="config-title">PublicHoliday</text>
  <line x1="1300" y1="875" x2="1520" y2="875" stroke="#f57c00" stroke-width="1"/>
  <text x="1310" y="895" class="attribute pk">id: String (PK)</text>
  <text x="1310" y="912" class="attribute unique">date: DateTime (UK)</text>
  <text x="1310" y="929" class="attribute">description: String</text>
  
  <rect x="1300" y="430" width="220" height="130" class="config-entity"/>
  <text x="1410" y="455" class="config-title">OfficeLocation</text>
  <line x1="1300" y1="465" x2="1520" y2="465" stroke="#f57c00" stroke-width="1"/>
  <text x="1310" y="485" class="attribute pk">id: String (PK)</text>
  <text x="1310" y="502" class="attribute">name: String</text>
  <text x="1310" y="519" class="attribute">latitude: Float</text>
  <text x="1310" y="536" class="attribute">longitude: Float</text>
  <text x="1310" y="553" class="attribute">radius: Float</text>
  
  <rect x="670" y="1000" width="400" height="240" fill="#f5f5f5" stroke="#e0e0e0" stroke-width="1" rx="8"/>
  <text x="870" y="1030" class="entity-title">Legend</text>
  
  <rect x="690" y="1045" width="80" height="30" class="entity"/>
  <text x="730" y="1065" class="attribute">Entity</text>
  <text x="800" y="1065" class="attribute" style="text-anchor: start;">- Entitas Utama</text>
  
  <rect x="690" y="1085" width="80" height="30" class="config-entity"/>
  <text x="730" y="1105" class="attribute">Config</text>
  <text x="800" y="1105" class="attribute" style="text-anchor: start;">- Entitas Konfigurasi</text>
  
  <rect x="690" y="1125" width="80" height="30" class="audit-entity"/>
  <text x="730" y="1145" class="attribute">Audit</text>
  <text x="800" y="1145" class="attribute" style="text-anchor: start;">- Entitas Log & Audit</text>
  
  <text x="690" y="1180" class="attribute pk">PK - Primary Key</text>
  <text x="690" y="1197" class="attribute fk">FK - Foreign Key</text>
  <text x="690" y="1214" class="attribute unique">UK - Unique Key</text>
  
  <line x1="690" y1="1240" x2="730" y2="1240" class="relationship" marker-end="url(#one)"/>
  <text x="800" y="1245" class="attribute" style="text-anchor: start;">- Exactly One</text>
  
  <line x1="690" y1="1260" x2="730" y2="1260" class="relationship" marker-end="url(#many)"/>
  <text x="800" y="1265" class="attribute" style="text-anchor: start;">- Many (Zero or More)</text>
  
  <line x1="270" y1="210" x2="340" y2="210" class="relationship" marker-start="url(#one)" marker-end="url(#zero-one)"/>
  <text x="305" y="200" class="relationship-label">1:1</text>
  
  <line x1="150" y1="290" x2="150" y2="330" class="relationship" marker-start="url(#one)" marker-end="url(#many)"/>
  <text x="170" y="310" class="relationship-label">1:N</text>
  
  <line x1="150" y1="290" x2="150" y2="490" class="relationship" marker-start="url(#one)" marker-end="url(#many)"/>
  <text x="170" y="390" class="relationship-label">1:N</text>
  
  <line x1="600" y1="210" x2="670" y2="210" class="relationship" marker-start="url(#one)" marker-end="url(#many)"/>
  <text x="635" y="200" class="relationship-label">1:N</text>
  
  <line x1="470" y1="330" x2="470" y2="370" class="relationship" marker-start="url(#one)" marker-end="url(#many)"/>
  <text x="490" y="350" class="relationship-label">1:N</text>
  
  <line x1="600" y1="240" x2="670" y2="575" class="relationship" marker-start="url(#one)" marker-end="url(#many)"/>
  <text x="635" y="405" class="relationship-label">1:N</text>
  
  <line x1="600" y1="270" x2="1020" y2="165" class="relationship" marker-start="url(#one)" marker-end="url(#many)"/>
  <text x="810" y="215" class="relationship-label">1:N</text>
  
  <line x1="600" y1="290" x2="1020" y2="345" class="relationship" marker-start="url(#one)" marker-end="url(#many)"/>
  <text x="810" y="315" class="relationship-label">1:N</text>
  
  <line x1="600" y1="310" x2="1020" y2="540" class="relationship" marker-start="url(#one)" marker-end="url(#many)"/>
  <text x="810" y="425" class="relationship-label">1:N</text>
  
  <line x1="600" y1="490" x2="1300" y2="155" class="relationship" marker-start="url(#one)" marker-end="url(#many)"/>
  <text x="950" y="320" class="relationship-label">1:N</text>
  
  <line x1="600" y1="510" x2="1300" y2="315" class="relationship" marker-start="url(#one)" marker-end="url(#many)"/>
  <text x="950" y="410" class="relationship-label">1:N</text>
  
  <line x1="980" y1="490" x2="1300" y2="490" class="relationship" marker-start="url(#one)" marker-end="url(#many)"/>
  <text x="1140" y="480" class="relationship-label">1:N</text>
  
  <line x1="980" y1="510" x2="1300" y2="315" class="relationship" marker-start="url(#one)" marker-end="url(#many)"/>
  <text x="1140" y="410" class="relationship-label">1:N</text>
  
  <line x1="980" y1="530" x2="1300" y2="530" class="relationship" marker-start="url(#one)" marker-end="url(#many)"/>
  <text x="1140" y="520" class="relationship-label">1:N</text>
  
  <line x1="150" y1="460" x2="1300" y2="735" class="relationship" marker-start="url(#one)" marker-end="url(#many)"/>
  <text x="725" y="595" class="relationship-label">1:N</text>
  
  <line x1="980" y1="450" x2="70" y2="735" class="relationship" marker-start="url(#one)" marker-end="url(#many)"/>
  <text x="525" y="590" class="relationship-label">1:N</text>
  
  <line x1="980" y1="470" x2="700" y2="735" class="relationship" marker-start="url(#one)" marker-end="url(#many)"/>
  <text x="840" y="600" class="relationship-label">1:N</text>
  
  <line x1="600" y1="550" x2="1020" y2="735" class="relationship" marker-start="url(#one)" marker-end="url(#many)"/>
  <text x="810" y="640" class="relationship-label">1:N</text>
  
  <text x="900" y="1350" style="font-family: Arial, sans-serif; font-size: 16px; text-anchor: middle; fill: #424242;">ERD menggunakan Notasi Chen & Crow's Foot - Berdasarkan Schema Prisma Terbaru</text>
</svg>