<svg width="1400" height="1000" xmlns="http://www.w3.org/2000/svg">
  <defs>
    <style>
      .title { font-family: Arial, sans-serif; font-size: 24px; font-weight: bold; text-anchor: middle; }
      .entity { fill: #e3f2fd; stroke: #1976d2; stroke-width: 2; }
      .entity-title { font-family: Arial, sans-serif; font-size: 14px; font-weight: bold; text-anchor: middle; }
      .attribute { font-family: Arial, sans-serif; font-size: 11px; }
      .pk { font-weight: bold; fill: #d32f2f; text-decoration: underline; }
      .fk { font-style: italic; fill: #1976d2; }
      .relationship { stroke: #333; stroke-width: 2; fill: none; }
      .relationship-label { font-family: Arial, sans-serif; font-size: 10px; text-anchor: middle; fill: #666; }
      .crow-foot { stroke: #333; stroke-width: 2; }
    </style>
    <!-- Marker definitions for crow's foot notation -->
    <marker id="one" markerWidth="12" markerHeight="12" refX="6" refY="6" orient="auto">
      <path d="M 6,0 L 6,12" stroke="#333" stroke-width="2" fill="none" />
    </marker>
    <marker id="many" markerWidth="12" markerHeight="12" refX="0" refY="6" orient="auto">
      <path d="M 0,0 L 0,12 M 6,0 L 6,12 M 12,6 L 0,6" stroke="#333" stroke-width="2" fill="none" />
    </marker>
  </defs>
  
  <!-- Title -->
  <text x="700" y="30" class="title">Entity Relationship Diagram (ERD) - Sistem Manajemen Absensi dan Payroll</text>
  
  <!-- User Entity -->
  <rect x="50" y="80" width="200" height="180" class="entity"/>
  <text x="150" y="100" class="entity-title">User</text>
  <line x1="50" y1="110" x2="250" y2="110" stroke="#1976d2" stroke-width="1"/>
  <text x="60" y="130" class="attribute pk">id: String (PK)</text>
  <text x="60" y="145" class="attribute">name: String</text>
  <text x="60" y="160" class="attribute">email: String (Unique)</text>
  <text x="60" y="175" class="attribute">hashedPassword: String</text>
  <text x="60" y="190" class="attribute">profileImageUrl: String?</text>
  <text x="60" y="205" class="attribute">role: String</text>
  <text x="60" y="220" class="attribute">createdAt: DateTime</text>
  <text x="60" y="235" class="attribute">updatedAt: DateTime</text>
  
  <!-- Employee Entity -->
  <rect x="350" y="80" width="220" height="200" class="entity"/>
  <text x="460" y="100" class="entity-title">Employee</text>
  <line x1="350" y1="110" x2="570" y2="110" stroke="#1976d2" stroke-width="1"/>
  <text x="360" y="130" class="attribute pk">id: String (PK)</text>
  <text x="360" y="145" class="attribute">employeeId: String (Unique)</text>
  <text x="360" y="160" class="attribute fk">userId: String (FK)</text>
  <text x="360" y="175" class="attribute">position: String</text>
  <text x="360" y="190" class="attribute">department: String</text>
  <text x="360" y="205" class="attribute">basicSalary: Float</text>
  <text x="360" y="220" class="attribute">joiningDate: DateTime</text>
  <text x="360" y="235" class="attribute">contactNumber: String?</text>
  <text x="360" y="250" class="attribute">address: String?</text>
  <text x="360" y="265" class="attribute">isActive: Boolean</text>
  
  <!-- Session Entity -->
  <rect x="50" y="320" width="200" height="120" class="entity"/>
  <text x="150" y="340" class="entity-title">Session</text>
  <line x1="50" y1="350" x2="250" y2="350" stroke="#1976d2" stroke-width="1"/>
  <text x="60" y="370" class="attribute pk">id: String (PK)</text>
  <text x="60" y="385" class="attribute">sessionToken: String (Unique)</text>
  <text x="60" y="400" class="attribute fk">userId: String (FK)</text>
  <text x="60" y="415" class="attribute">expires: DateTime</text>
  
  <!-- Notification Entity -->
  <rect x="50" y="480" width="200" height="140" class="entity"/>
  <text x="150" y="500" class="entity-title">Notification</text>
  <line x1="50" y1="510" x2="250" y2="510" stroke="#1976d2" stroke-width="1"/>
  <text x="60" y="530" class="attribute pk">id: String (PK)</text>
  <text x="60" y="545" class="attribute fk">userId: String (FK)</text>
  <text x="60" y="560" class="attribute">title: String</text>
  <text x="60" y="575" class="attribute">message: String</text>
  <text x="60" y="590" class="attribute">type: String</text>
  <text x="60" y="605" class="attribute">read: Boolean</text>
  <text x="60" y="620" class="attribute">createdAt: DateTime</text>
  
  <!-- Attendance Entity -->
  <rect x="650" y="80" width="250" height="280" class="entity"/>
  <text x="775" y="100" class="entity-title">Attendance</text>
  <line x1="650" y1="110" x2="900" y2="110" stroke="#1976d2" stroke-width="1"/>
  <text x="660" y="130" class="attribute pk">id: String (PK)</text>
  <text x="660" y="145" class="attribute fk">employeeId: String (FK)</text>
  <text x="660" y="160" class="attribute">date: DateTime</text>
  <text x="660" y="175" class="attribute">checkIn: DateTime?</text>
  <text x="660" y="190" class="attribute">checkOut: DateTime?</text>
  <text x="660" y="205" class="attribute">status: String</text>
  <text x="660" y="220" class="attribute">notes: String?</text>
  <text x="660" y="235" class="attribute">isLate: Boolean</text>
  <text x="660" y="250" class="attribute">lateMinutes: Int</text>
  <text x="660" y="265" class="attribute">overtime: Int</text>
  <text x="660" y="280" class="attribute">isOvertimeApproved: Boolean</text>
  <text x="660" y="295" class="attribute">isSundayWork: Boolean</text>
  <text x="660" y="310" class="attribute">isSundayWorkApproved: Boolean</text>
  <text x="660" y="325" class="attribute">checkInPhotoUrl: String?</text>
  <text x="660" y="340" class="attribute">checkInLatitude: Float?</text>
  <text x="660" y="355" class="attribute">checkInLongitude: Float?</text>
  
  <!-- Payroll Entity -->
  <rect x="350" y="320" width="220" height="220" class="entity"/>
  <text x="460" y="340" class="entity-title">Payroll</text>
  <line x1="350" y1="350" x2="570" y2="350" stroke="#1976d2" stroke-width="1"/>
  <text x="360" y="370" class="attribute pk">id: String (PK)</text>
  <text x="360" y="385" class="attribute fk">employeeId: String (FK)</text>
  <text x="360" y="400" class="attribute">month: Int</text>
  <text x="360" y="415" class="attribute">year: Int</text>
  <text x="360" y="430" class="attribute">baseSalary: Float</text>
  <text x="360" y="445" class="attribute">totalAllowances: Float</text>
  <text x="360" y="460" class="attribute">totalDeductions: Float</text>
  <text x="360" y="475" class="attribute">netSalary: Float</text>
  <text x="360" y="490" class="attribute">daysPresent: Int</text>
  <text x="360" y="505" class="attribute">daysAbsent: Int</text>
  <text x="360" y="520" class="attribute">overtimeHours: Float</text>
  <text x="360" y="535" class="attribute">status: String</text>
  
  <!-- Leave Entity -->
  <rect x="650" y="400" width="200" height="160" class="entity"/>
  <text x="750" y="420" class="entity-title">Leave</text>
  <line x1="650" y1="430" x2="850" y2="430" stroke="#1976d2" stroke-width="1"/>
  <text x="660" y="450" class="attribute pk">id: String (PK)</text>
  <text x="660" y="465" class="attribute fk">employeeId: String (FK)</text>
  <text x="660" y="480" class="attribute">startDate: DateTime</text>
  <text x="660" y="495" class="attribute">endDate: DateTime</text>
  <text x="660" y="510" class="attribute">reason: String</text>
  <text x="660" y="525" class="attribute">type: String</text>
  <text x="660" y="540" class="attribute">status: String</text>
  <text x="660" y="555" class="attribute">approvedBy: String?</text>
  
  <!-- Allowance Entity -->
  <rect x="950" y="320" width="180" height="140" class="entity"/>
  <text x="1040" y="340" class="entity-title">Allowance</text>
  <line x1="950" y1="350" x2="1130" y2="350" stroke="#1976d2" stroke-width="1"/>
  <text x="960" y="370" class="attribute pk">id: String (PK)</text>
  <text x="960" y="385" class="attribute fk">employeeId: String (FK)</text>
  <text x="960" y="400" class="attribute">month: Int</text>
  <text x="960" y="415" class="attribute">year: Int</text>
  <text x="960" y="430" class="attribute">type: String</text>
  <text x="960" y="445" class="attribute">amount: Float</text>
  <text x="960" y="460" class="attribute">date: DateTime</text>
  
  <!-- Deduction Entity -->
  <rect x="950" y="500" width="180" height="140" class="entity"/>
  <text x="1040" y="520" class="entity-title">Deduction</text>
  <line x1="950" y1="530" x2="1130" y2="530" stroke="#1976d2" stroke-width="1"/>
  <text x="960" y="550" class="attribute pk">id: String (PK)</text>
  <text x="960" y="565" class="attribute fk">employeeId: String (FK)</text>
  <text x="960" y="580" class="attribute">month: Int</text>
  <text x="960" y="595" class="attribute">year: Int</text>
  <text x="960" y="610" class="attribute">reason: String</text>
  <text x="960" y="625" class="attribute">amount: Float</text>
  <text x="960" y="640" class="attribute">type: String</text>
  
  <!-- Relationships with Crow's Foot Notation -->
  
  <!-- User to Employee (1:1) -->
  <line x1="250" y1="170" x2="350" y2="170" class="relationship" marker-start="url(#one)" marker-end="url(#one)"/>
  <text x="300" y="160" class="relationship-label">1:1</text>
  
  <!-- User to Session (1:N) -->
  <line x1="150" y1="260" x2="150" y2="320" class="relationship" marker-start="url(#one)" marker-end="url(#many)"/>
  <text x="165" y="290" class="relationship-label">1:N</text>
  
  <!-- User to Notification (1:N) -->
  <line x1="150" y1="260" x2="150" y2="480" class="relationship" marker-start="url(#one)" marker-end="url(#many)"/>
  <text x="165" y="370" class="relationship-label">1:N</text>
  
  <!-- Employee to Attendance (1:N) -->
  <line x1="570" y1="180" x2="650" y2="180" class="relationship" marker-start="url(#one)" marker-end="url(#many)"/>
  <text x="610" y="170" class="relationship-label">1:N</text>
  
  <!-- Employee to Payroll (1:N) -->
  <line x1="460" y1="280" x2="460" y2="320" class="relationship" marker-start="url(#one)" marker-end="url(#many)"/>
  <text x="475" y="300" class="relationship-label">1:N</text>
  
  <!-- Employee to Leave (1:N) -->
  <line x1="570" y1="220" x2="650" y2="480" class="relationship" marker-start="url(#one)" marker-end="url(#many)"/>
  <text x="610" y="350" class="relationship-label">1:N</text>
  
  <!-- Employee to Allowance (1:N) -->
  <line x1="570" y1="200" x2="950" y2="390" class="relationship" marker-start="url(#one)" marker-end="url(#many)"/>
  <text x="760" y="295" class="relationship-label">1:N</text>
  
  <!-- Employee to Deduction (1:N) -->
  <line x1="570" y1="240" x2="950" y2="570" class="relationship" marker-start="url(#one)" marker-end="url(#many)"/>
  <text x="760" y="405" class="relationship-label">1:N</text>
  
  <!-- Legend -->
  <rect x="50" y="700" width="300" height="180" fill="#f5f5f5" stroke="#ccc" stroke-width="1"/>
  <text x="200" y="720" class="entity-title">Legend</text>
  <text x="60" y="740" class="attribute pk">PK = Primary Key</text>
  <text x="60" y="755" class="attribute fk">FK = Foreign Key</text>
  
  <!-- Crow's foot notation legend -->
  <line x1="60" y1="780" x2="100" y2="780" class="relationship" marker-end="url(#one)"/>
  <text x="150" y="785" class="attribute">Exactly One</text>
  
  <line x1="60" y1="810" x2="100" y2="810" class="relationship" marker-end="url(#many)"/>
  <text x="150" y="815" class="attribute">Many (Zero or More)</text>
  
  <text x="60" y="840" class="attribute">Relationship Types:</text>
  <text x="80" y="855" class="attribute">1:1 - One to One</text>
  <text x="80" y="870" class="attribute">1:N - One to Many</text>
  
  <!-- Normalization Note -->
  <rect x="400" y="700" width="400" height="180" fill="#f5f5f5" stroke="#ccc" stroke-width="1"/>
  <text x="600" y="720" class="entity-title">Normalisasi Database</text>
  <text x="410" y="740" class="attribute">• 1NF: Semua entitas memiliki primary key dan tidak ada atribut yang berulang</text>
  <text x="410" y="755" class="attribute">• 2NF: Semua atribut non-key bergantung pada seluruh primary key</text>
  <text x="410" y="770" class="attribute">• 3NF: Tidak ada ketergantungan transitif antar atribut non-key</text>
  <text x="410" y="785" class="attribute">• Entitas terpisah untuk User, Employee, Attendance, Payroll, dll.</text>
  <text x="410" y="800" class="attribute">• Relasi yang jelas antar entitas dengan foreign key</text>
  <text x="410" y="815" class="attribute">• Tidak ada redundansi data yang signifikan</text>
  <text x="410" y="830" class="attribute">• Integritas referensial dijaga melalui relasi antar tabel</text>
  <text x="410" y="845" class="attribute">• Atribut dikelompokkan secara logis dalam entitas yang sesuai</text>
  
  <!-- Cardinality Labels -->
  <rect x="850" y="700" width="400" height="180" fill="#f5f5f5" stroke="#ccc" stroke-width="1"/>
  <text x="1050" y="720" class="entity-title">Kardinalitas Relasi</text>
  <text x="860" y="740" class="relationship-label">• User ↔ Employee: 1:1 (Satu user hanya memiliki satu data employee)</text>
  <text x="860" y="755" class="relationship-label">• User ↔ Session: 1:N (Satu user dapat memiliki banyak sesi login)</text>
  <text x="860" y="770" class="relationship-label">• User ↔ Notification: 1:N (Satu user dapat menerima banyak notifikasi)</text>
  <text x="860" y="785" class="relationship-label">• Employee ↔ Attendance: 1:N (Satu karyawan memiliki banyak catatan absensi)</text>
  <text x="860" y="800" class="relationship-label">• Employee ↔ Payroll: 1:N (Satu karyawan memiliki banyak slip gaji)</text>
  <text x="860" y="815" class="relationship-label">• Employee ↔ Leave: 1:N (Satu karyawan dapat mengajukan banyak cuti)</text>
  <text x="860" y="830" class="relationship-label">• Employee ↔ Allowance: 1:N (Satu karyawan dapat menerima banyak tunjangan)</text>
  <text x="860" y="845" class="relationship-label">• Employee ↔ Deduction: 1:N (Satu karyawan dapat menerima banyak potongan)</text>
  <text x="860" y="860" class="relationship-label">• Semua relasi menggunakan foreign key untuk menjaga integritas data</text>
</svg>